Coordinates
version=1
nRows=16
nColumns=63
inDegrees=yes

Units are S.I. units (second, meters, Newtons, ...)
If the header above contains a line with 'inDegrees', this indicates whether rotational values are in degrees (yes) or radians (no).

endheader
time	pelvis_tilt	pelvis_list	pelvis_rotation	pelvis_tx	pelvis_ty	pelvis_tz	hip_flexion_r	hip_adduction_r	hip_rotation_r	knee_angle_r	knee_angle_r_beta	ankle_angle_r	subtalar_angle_r	mtp_angle_r	hip_flexion_l	hip_adduction_l	hip_rotation_l	knee_angle_l	knee_angle_l_beta	ankle_angle_l	subtalar_angle_l	mtp_angle_l	L5_S1_Flex_Ext	L5_S1_Lat_Bending	L5_S1_axial_rotation	L4_L5_Flex_Ext	L4_L5_Lat_Bending	L4_L5_axial_rotation	L3_L4_Flex_Ext	L3_L4_Lat_Bending	L3_L4_axial_rotation	L2_L3_Flex_Ext	L2_L3_Lat_Bending	L2_L3_axial_rotation	L1_L2_Flex_Ext	L1_L2_Lat_Bending	L1_L2_axial_rotation	L1_T12_Flex_Ext	L1_T12_Lat_Bending	L1_T12_axial_rotation	Abs_r3	Abs_r2	Abs_r1	Abs_t1	Abs_t2	neck_flexion	neck_bending	neck_rotation	arm_flex_r	arm_add_r	arm_rot_r	elbow_flex_r	pro_sup_r	wrist_flex_r	wrist_dev_r	arm_flex_l	arm_add_l	arm_rot_l	elbow_flex_l	pro_sup_l	wrist_flex_l	wrist_dev_l
4.872340	4.938072	-17.151630	91.674367	0.208625	0.703157	0.893354	26.577061	2.839983	-15.314880	8.796441	0.153527	23.144073	3.373079	0.000000	29.433278	-5.581482	24.204039	12.014913	0.209700	14.056666	-9.976067	0.000000	0.397235	-0.841608	3.142636	0.737704	-1.119339	3.339050	0.652617	-2.046286	3.339050	0.453999	-2.046286	2.749806	0.368872	-1.716207	2.553392	0.226980	-1.303651	2.356977	2.837407	-9.520438	17.478397	0.000000	0.000000	26.544194	-0.556594	20.748134	47.490107	-27.890095	54.435864	61.720249	74.654455	8.471142	5.293800	29.519758	-23.731979	42.479119	41.865946	62.293359	-7.494603	3.672176
4.893617	6.322011	-20.390913	92.968302	0.209534	0.692211	0.900684	31.337560	3.047236	-16.019596	10.122839	0.176677	24.393130	3.945831	0.000000	34.568135	-5.990020	24.510487	14.003672	0.244410	14.601490	-8.866596	0.000000	0.518538	-0.841136	3.092894	0.962976	-1.118711	3.286200	0.851905	-2.045139	3.286200	0.592637	-2.045139	2.706283	0.481514	-1.715245	2.512977	0.296292	-1.302920	2.319671	3.703862	-9.515104	17.201751	0.000000	0.000000	27.323382	1.162013	23.721225	48.380945	-24.282346	62.068880	54.915042	70.168435	8.367864	3.365018	32.723322	-23.553741	56.002743	32.806087	56.793376	-8.067462	1.549307
4.914894	8.016932	-23.851420	94.405599	0.210352	0.679816	0.909329	36.652293	3.156482	-16.954327	11.838021	0.206612	25.848011	4.778286	0.000000	40.341620	-6.390808	24.531360	16.382375	0.285926	15.685393	-7.333321	0.000000	0.658070	-0.820603	3.034606	1.222102	-1.091402	3.224269	1.081144	-1.995213	3.224269	0.752109	-1.995213	2.655280	0.611084	-1.673373	2.465617	0.376021	-1.271114	2.275954	4.700531	-9.282821	16.877568	0.000000	0.000000	27.986868	3.143175	27.038340	49.857365	-20.619841	71.005361	47.733245	64.545621	8.125496	1.550253	36.081789	-23.448637	69.920443	24.323785	51.102404	-8.848178	-0.441339
4.936170	9.922501	-27.464738	95.892772	0.211055	0.666085	0.919106	42.426761	3.154461	-18.014363	13.976434	0.243935	27.478108	5.854723	0.000000	46.609071	-6.755213	24.256376	19.112842	0.333582	17.287165	-5.484663	0.000000	0.809279	-0.786564	2.981806	1.502912	-1.046130	3.168169	1.329564	-1.912451	3.168169	0.924925	-1.912451	2.609080	0.751496	-1.603960	2.422717	0.462422	-1.218387	2.236354	5.780598	-8.897765	16.583909	0.000000	0.000000	28.491904	5.300187	30.479973	51.828223	-17.066932	80.772168	40.455639	57.877355	7.666289	-0.103138	39.421919	-23.345026	83.519323	16.759997	45.173869	-9.689700	-2.174912
4.957447	12.082501	-31.123822	97.464170	0.211600	0.651218	0.929767	48.519754	3.048427	-19.160591	16.534451	0.288581	29.204496	7.059676	0.000000	53.221940	-7.063767	23.735606	22.149365	0.386579	19.338621	-3.399828	0.000000	0.967262	-0.734188	2.936983	1.796302	-0.976470	3.120544	1.589115	-1.785105	3.120544	1.105484	-1.785105	2.569860	0.898199	-1.497157	2.386299	0.552693	-1.137258	2.202737	6.909055	-8.305284	16.334619	0.000000	0.000000	28.789036	7.525389	33.882558	54.178726	-13.738590	91.050123	33.317881	50.491373	6.993854	-1.658766	42.522347	-23.186698	95.702983	10.416448	38.939529	-10.386627	-3.706752
4.978723	14.362865	-34.774229	99.046770	0.212022	0.635456	0.940974	54.808218	2.842410	-20.283327	19.477667	0.339949	30.984860	8.254653	0.000000	60.010126	-7.307002	22.967639	25.400568	0.443324	21.793989	-1.152933	0.000000	1.127581	-0.674133	2.899971	2.094030	-0.896597	3.081219	1.852503	-1.639087	3.081219	1.288712	-1.639087	2.537474	1.047072	-1.374692	2.356226	0.644300	-1.044232	2.174978	8.054197	-7.625926	16.128766	0.000000	0.000000	28.873861	9.726098	37.113202	56.760298	-10.709379	101.507813	26.525255	42.965015	6.189169	-3.216933	45.250132	-22.945689	106.231296	5.448288	32.672328	-10.919689	-5.072631
5.000000	16.603162	-38.382522	100.550618	0.212362	0.619026	0.952406	61.193653	2.554972	-21.273002	22.768180	0.397380	32.789001	9.302899	0.000000	66.822858	-7.495132	21.946016	28.773753	0.502197	24.593470	1.161264	0.000000	1.285102	-0.619989	2.871915	2.386562	-0.824585	3.051410	2.111293	-1.507441	3.051410	1.468743	-1.507441	2.512926	1.193345	-1.264281	2.333431	0.734307	-0.960363	2.153937	9.179352	-7.013439	15.972732	0.000000	0.000000	28.818186	11.828135	40.002669	59.397560	-8.060372	111.869280	20.297091	35.829755	5.307076	-4.783947	47.563507	-22.565669	115.466267	1.925471	27.221175	-11.295254	-5.923578
5.021277	18.698061	-41.906390	101.947980	0.212643	0.602142	0.963764	67.575124	2.199116	-22.041054	26.350142	0.459897	34.580674	10.058315	0.000000	73.523797	-7.624935	20.708047	32.186495	0.561760	27.644265	3.438076	0.000000	1.434305	-0.581719	2.853382	2.663649	-0.773686	3.031719	2.356420	-1.414391	3.031719	1.639268	-1.414391	2.496709	1.331896	-1.186241	2.318373	0.819562	-0.901082	2.140037	10.245100	-6.580520	15.869656	0.000000	0.000000	28.718120	13.738186	42.403081	61.920178	-5.861641	121.754293	14.828958	29.536998	4.363962	-6.243792	49.455028	-21.983461	123.154243	-0.178878	23.853599	-11.360441	-5.895789
5.042553	20.635892	-45.261011	103.218540	0.212991	0.585029	0.974736	73.803786	1.811911	-22.533407	30.129414	0.525857	36.335216	10.497879	0.000000	79.935167	-7.729830	19.213066	35.534712	0.620198	30.870183	5.659645	0.000000	1.568398	-0.561435	2.844746	2.912673	-0.746708	3.022543	2.576722	-1.365072	3.022543	1.792523	-1.365072	2.489153	1.456415	-1.144877	2.311356	0.896183	-0.869662	2.133560	11.202913	-6.351060	15.821626	0.000000	0.000000	28.657079	15.432677	44.320236	64.311052	-4.100551	131.120169	10.206503	24.134286	3.294426	-7.428768	50.881755	-21.252920	128.581756	-0.908504	22.731841	-11.286484	-4.892842
5.063830	22.295834	-48.427662	104.368174	0.213259	0.567885	0.985109	79.835535	1.388183	-22.654157	34.074540	0.594713	37.963283	10.389305	0.000000	85.987483	-7.767410	17.796059	38.805162	0.677278	33.979075	7.276282	0.000000	1.685000	-0.566096	2.854542	3.129214	-0.752908	3.032951	2.768287	-1.376406	3.032951	1.925787	-1.376406	2.497724	1.564691	-1.154383	2.319315	0.962809	-0.876883	2.140907	12.035789	-6.403794	15.876106	0.000000	0.000000	28.616722	16.787102	45.657035	66.289071	-2.891642	139.408797	6.576294	19.438962	2.154629	-8.217446	52.049488	-20.331702	131.707395	-0.651457	23.925304	-11.336982	-3.426387
5.085106	23.574699	-51.344479	105.349560	0.213516	0.550938	0.994652	85.551630	0.944831	-22.341909	38.073541	0.664509	39.456835	9.743250	0.000000	91.533218	-7.741569	16.413210	41.918456	0.731615	36.864909	8.297055	0.000000	1.776984	-0.601772	2.872592	3.300037	-0.800357	3.052129	2.919407	-1.463149	3.052129	2.030915	-1.463149	2.513518	1.650107	-1.227134	2.333981	1.015369	-0.932145	2.154444	12.692819	-6.807369	15.976495	0.000000	0.000000	28.594066	17.827769	46.440142	67.933810	-2.179317	146.464672	3.875361	15.569366	0.802988	-8.643991	53.101554	-19.377557	132.857787	0.258392	27.209291	-11.937373	-1.758332
5.106383	24.427507	-53.967471	106.152199	0.213867	0.534390	1.003210	90.865608	0.475079	-21.546963	42.030471	0.733570	40.801558	8.501902	0.000000	96.490182	-7.630160	15.123318	44.844297	0.782681	39.365562	8.707726	0.000000	1.841683	-0.673005	2.899757	3.420189	-0.895097	3.080992	3.025701	-1.636345	3.080992	2.104859	-1.636345	2.537288	1.710187	-1.372392	2.356053	1.052338	-1.042485	2.174818	13.154956	-7.613170	16.127579	0.000000	0.000000	28.582072	18.567439	46.603760	69.243295	-1.902202	152.095344	2.037155	12.497318	-0.739622	-8.739713	54.290300	-18.502580	132.202219	1.394927	32.583256	-13.488387	-0.155498
5.127660	24.740024	-56.279355	106.688644	0.214433	0.518468	1.010657	95.716819	-0.027073	-20.209602	45.867873	0.800545	41.989852	6.683568	0.000000	100.779069	-7.400437	13.969747	47.530962	0.829572	41.346716	8.499535	0.000000	1.879967	-0.788440	2.930704	3.491287	-1.048625	3.113873	3.088598	-1.917012	3.113873	2.148615	-1.917012	2.564366	1.745738	-1.607786	2.381197	1.074213	-1.221293	2.198028	13.428418	-8.918987	16.299697	0.000000	0.000000	28.577070	19.092504	46.092295	70.247923	-1.930671	156.198833	0.913120	10.264886	-2.395089	-8.574621	55.770202	-17.711269	130.227362	2.498109	40.172279	-15.653433	1.704708
5.148936	24.552331	-58.247734	106.940186	0.215089	0.503436	1.016949	100.039660	-0.520162	-18.482484	49.522381	0.864329	43.037605	4.502492	0.000000	104.369069	-7.068177	13.069201	49.994680	0.872572	42.718769	7.641182	0.000000	1.893265	-0.935861	2.956677	3.515983	-1.244695	3.141469	3.110445	-2.275453	3.141469	2.163813	-2.275453	2.587092	1.758086	-1.908408	2.402300	1.081812	-1.449649	2.217508	13.523403	-10.586648	16.444149	0.000000	0.000000	28.574250	19.445690	45.194066	71.006619	-2.179510	158.645624	0.362112	9.071240	-4.099350	-8.188270	57.795303	-16.559641	134.579151	2.089147	43.338030	-17.212963	3.348454
5.170213	23.895786	-59.901505	106.920983	0.215857	0.489560	1.022161	103.860433	-1.023106	-16.421180	52.953815	0.924218	43.953838	2.075708	0.000000	107.268583	-6.628906	12.353377	52.177125	0.910663	43.498321	6.299096	0.000000	1.880162	-1.106115	2.952353	3.491649	-1.471133	3.136875	3.088918	-2.689407	3.136875	2.148837	-2.689407	2.583309	1.745918	-2.255589	2.398787	1.074325	-1.713372	2.214264	13.429809	-12.512591	16.420100	0.000000	0.000000	28.572096	19.789070	44.722482	71.646306	-2.480870	159.585880	0.244339	9.214526	-5.739220	-7.489762	59.752269	-15.527354	139.236551	1.712055	46.221578	-18.791563	5.114096
5.191489	22.788436	-61.270152	106.553474	0.216784	0.477034	1.026343	107.203077	-1.484090	-14.169785	56.114383	0.979381	44.802663	-0.350674	0.000000	109.541476	-6.174847	11.636253	54.101126	0.944243	43.836910	4.751790	0.000000	1.845254	-1.293913	2.935421	3.426821	-1.720905	3.118885	3.031567	-3.146021	3.118885	2.108940	-3.146021	2.568493	1.713503	-2.638548	2.385029	1.054378	-2.004272	2.201566	13.180462	-14.637006	16.325930	0.000000	0.000000	28.569666	20.086891	44.634315	72.135266	-2.828352	158.591409	0.498265	11.110719	-7.337790	-6.686818	61.614456	-14.620384	144.368183	1.441857	49.086904	-20.167940	7.191780
